<?xml version="1.0" encoding="utf-8"?>
<!-- Generator: Adobe Illustrator 16.0.4, SVG Export Plug-In . SVG Version: 6.00 Build 0)  -->
<!DOCTYPE svg PUBLIC "-//W3C//DTD SVG 1.1//EN" "http://www.w3.org/Graphics/SVG/1.1/DTD/svg11.dtd">
<svg version="1.1" id="Layer_1" xmlns="http://www.w3.org/2000/svg" xmlns:xlink="http://www.w3.org/1999/xlink" x="0px" y="0px"
	 width="557px" height="528px" viewBox="167.979 45.733 557 528" enable-background="new 167.979 45.733 557 528"
	 xml:space="preserve">
<rect x="219.887" y="72.892" fill="#93BF9E" width="436" height="455"/>
<rect x="259.887" y="106.892" fill="#93D9B0" width="279" height="291"/>
<g>
	<g>
		<g>
			<defs>
				<rect id="SVGID_1_" x="187.887" y="49.892" width="511" height="505"/>
			</defs>
			<clipPath id="SVGID_2_">
				<use xlink:href="#SVGID_1_"  overflow="visible"/>
			</clipPath>
			<path clip-path="url(#SVGID_2_)" d="M427.972,440.346l-8.407-5.237L316.34,480.304l-10.573-3.004l-6.04,9.793l-2.267-9.034
				l-4.522,12.051l-10.544,1.507l-9.037,8.283l-9.037,6.775l-15.813-50.452c0,0-13.555-1.507-12.802,0.753
				c0.753,2.262,12.048,45.936,12.048,45.936l-3.765,2.26l-16.566-48.193l-6.024,0.755l15.06,36.896l-6.024-0.754
				c0,0,1.506-6.022-4.518-8.282s-1.506-4.52-6.024-2.26s-4.518,0-7.53-3.012c-3.012-3.014-1.506-12.803-5.271-12.05
				c-3.765,0.755-9.036-2.259-8.283,0c0.753,2.261-37.404-50.45-37.404-50.45l-3.518-6.024c0,0,3-6.903,0-6.903
				c-4,0-84.831,52.839-108.174,79.192c0,0-40.662-0.753-42.921,0s-9.036-2.26-12.801,1.506c-3.765,3.768-4.519,3.015-9.79,3.768
				s-3.012-3.767-12.048,0c-9.036,3.765-26.355,8.281-30.121,9.789c-3.766,1.506-24.849,5.271-24.096,7.528
				s-4.518,23.345-4.518,23.345l-4.52,134.787l788.404-1.506L447.3,582.73L427.972,440.346z"/>
		</g>
	</g>
	<g>
		<g>
			<defs>
				<rect id="SVGID_3_" x="187.887" y="49.892" width="511" height="505"/>
			</defs>
			<clipPath id="SVGID_4_">
				<use xlink:href="#SVGID_3_"  overflow="visible"/>
			</clipPath>
			<path clip-path="url(#SVGID_4_)" d="M671.943,485.082l1.501-19.576l5.268-0.753l-1.234-6.021l-27.591-2.261v-16.578l5.733-2.248
				l1.003-6.774l-26.23-1.506l-1.756-18.627l6.067-5.03l-24.633-3.02l-2.004-18.61l-1.003-2.518l10.062-0.503l-0.502-6.034
				l-27.665-2.014l-0.503-17.103l6.539-1.006l-2.012-5.534l-26.157-2.013l-2.517-10.562l-83.501-6.54l-12.07,2.012l-110.664,4.527
				l0.503,16.096l44.266,5.533l17.104,3.021c0,0,3.521-3.02,5.028-2.518c1.511,0.504,11.066,1.51,11.066,1.51l-3.021,10.062
				c0,0,2.016,1.508,1.009,4.021c-1.009,2.517-4.025,11.568-2.015,13.078c2.014,1.512,0,3.02,0,5.03s1.006,15.092,1.511,17.606
				c0.504,2.514,1.51,15.091,1.51,18.106c0,3.019-2.015,10.563-2.015,10.563s-9.054,29.677-9.054,31.688
				s13.581,70.926,13.581,70.926l78.976,7.042l148.894-9.054l33.642-53.676L671.943,485.082z M521.331,507.675
				c-3.012,0-23.344,7.529-24.851,5.271c-1.507-2.26-4.52,2.259-9.035,1.506c-4.519-0.753-9.036,8.283-12.049,7.53
				c-3.013-0.755-0.754-86.599-0.754-86.599l-3.013-67.771l8.283,9.789c0,0,18.072,27.106,21.084,31.626
				c3.012,4.518,27.862,35.392,27.862,35.392l1.506,64.76C530.367,509.181,524.343,507.675,521.331,507.675z M567.944,517.561
				l-10.399-3.062l-12.658,1.458v-50.065c0,0,16.605,13.924,18.112,16.183s3.263,10.542,6.274,12.801
				c3.011,2.259,6.147,3.013,7.653,6.024c1.506,3.011,3.683,12.992,3.683,12.992L567.944,517.561z"/>
		</g>
	</g>
	<g>
		<g>
			<defs>
				<rect id="SVGID_5_" x="187.887" y="49.892" width="511" height="505"/>
			</defs>
			<clipPath id="SVGID_6_">
				<use xlink:href="#SVGID_5_"  overflow="visible"/>
			</clipPath>
			<path clip-path="url(#SVGID_6_)" d="M430.887,172.892h-4c0,0-9.259,8.71-9.259,9.867c0,1.157-6.94,9.004-6.94,9.004l-4.24,4.888
				l-15.809,4.95c0,0-7.327-0.417-7.327,0.74c0,1.157-5.013,9.238-5.013,9.238l12.34,1.535l1.156-5.017l16.581-2.701l12.299-9.641
				l9.214,28.533v23.603l8.834,24.982c0,0-0.904,11.183-0.521,12.339c0.385,1.156,5.521,9.254,5.521,9.254l-2.637,3.856l3.887,9.64
				c0,0-2.685,11.183-3.067,12.339c-0.386,1.156-14.261,14.652-14.261,14.652l23.911-1.928l20.438-0.388l4.243-12.725
				c0,0-0.387-17.737-0.771-20.051s-3.854-11.954-3.854-11.954s1.154-6.555,1.154-7.712c0-1.157-2.312-10.025-2.312-10.025
				s1.156-6.555-0.386-8.097c-1.542-1.542-2.699-12.725-2.699-12.725l-1.156-18.509l-3.471-10.796l1.373-32.106l7.62,9.237
				c0,0-14.122,18.775-12.579,18.775c1.545,0-7.131,6.313-7.131,6.313l9.642,4.627l2.312-1.157l-4.627-5.398l-2.312-2.313
				l8.288-10.555l-5.398,2.313l19.779-23.283l-8.098-8.869l-4.242-8.869l-9.254-4.242l-8.1,0.386l-3.47-2.313l-0.771-3.47
				l3.085-2.314l3.084-5.784l1.155-12.725l-8.098-11.182l-10.411,0.385c0,0-9.64,8.098-9.64,10.026c0,1.928-0.771,9.254-0.771,9.254
				s1.157,1.542,1.157,2.699c0,1.157,0.386,8.869,0.386,8.869s2.039,5.398,2.812,6.555c0.771,1.157,4.352,2.313,4.352,2.313v2.671
				L430.887,172.892z"/>
		</g>
	</g>
	<g>
		<g>
			<defs>
				<rect id="SVGID_7_" x="187.887" y="49.892" width="511" height="505"/>
			</defs>
			<clipPath id="SVGID_8_">
				<use xlink:href="#SVGID_7_"  overflow="visible"/>
			</clipPath>
			<polygon clip-path="url(#SVGID_8_)" points="409.475,527.975 523.469,538.474 656.962,524.975 694.46,490.477 701.96,496.476 
				707.959,664.468 571.466,659.968 416.974,601.471 			"/>
		</g>
	</g>
	<g>
		<g>
			<defs>
				<rect id="SVGID_9_" x="187.887" y="49.892" width="511" height="505"/>
			</defs>
			<clipPath id="SVGID_10_">
				<use xlink:href="#SVGID_9_"  overflow="visible"/>
			</clipPath>
			<circle clip-path="url(#SVGID_10_)" fill="none" cx="415.475" cy="311.985" r="254.986"/>
		</g>
	</g>
</g>
<polygon points="478.459,185.192 483.408,190.515 484.155,193.596 465.573,210.216 460.905,217.687 456.517,220.768 
	453.248,210.403 456.149,203.641 463.423,197.983 "/>
</svg>
