<?xml version="1.0" encoding="utf-8"?>
<!-- Generator: Adobe Illustrator 16.0.4, SVG Export Plug-In . SVG Version: 6.00 Build 0)  -->
<!DOCTYPE svg PUBLIC "-//W3C//DTD SVG 1.1//EN" "http://www.w3.org/Graphics/SVG/1.1/DTD/svg11.dtd">
<svg version="1.1" id="Layer_1" xmlns="http://www.w3.org/2000/svg" xmlns:xlink="http://www.w3.org/1999/xlink" x="0px" y="0px"
	 width="395.98px" height="425.979px" viewBox="-776.356 29.603 395.98 425.979"
	 enable-background="new -776.356 29.603 395.98 425.979" xml:space="preserve">
<circle fill="#93D9B0" cx="-578.366" cy="215.595" r="125.994"/>
<path d="M-549.549,382.164c0,0-0.784-67.351-1.566-72.05s-7.832-38.374-7.832-38.374s-0.786-3.001-2.219-3.001
	s-20.063-10.35-21.019-12.738s-6.528-6.528-7.484-6.688s-15.446-0.955-16.083-3.025s0.159-4.459,0.159-4.459s6.21,2.549,6.847,3.345
	s7.165,1.593,8.121,0.318s3.503-4.618,4.458-2.548s3.344,3.98,3.344,3.98s-1.115-16.878-0.318-16.72
	c0.796,0.16,3.822,2.707,4.299,3.981s-0.319,3.663,0.478,8.121s1.911,6.688,3.822,9.076s4.777,3.821,4.777,3.821
	s5.096-7.802,5.573-9.235s-0.796-12.579-1.115-13.694c-0.318-1.114-5.096-26.591-5.096-26.591l-1.114-3.025l-6.369-5.732
	c0,0-1.274-1.751,1.751-1.115s5.095,3.503,5.095,3.503l1.274-8.599l-0.956-4.299c0,0,3.025,0.478,3.344,1.751
	s2.867-6.21,3.185-5.732s-1.434,4.937-0.637,7.166s2.229,9.235,2.229,9.872s1.751,3.503,2.07,3.981s1.592-3.662,1.911-4.618
	s4.937-7.325,5.255-6.847s-0.478,5.414-0.956,6.688s-3.821,6.847-3.662,9.713c0.159,2.867,0,4.777,1.114,8.28
	s1.115,7.483,1.115,7.483s3.343-1.433,3.662,0c0.319,1.434,0.318,1.752-1.751,6.529s-3.184,4.14-2.388,6.847
	s1.115,10.668,1.274,12.42s4.299,12.578,4.299,13.216s1.274,0.319,1.274,0.319s1.911-7.962,2.389-8.121s3.663-5.414,4.458-5.732
	s2.548-1.115,3.025,0.159s2.388,3.025,2.547-0.159s-1.273-9.235,0.796-8.599s4.458,4.617,5.254,8.917s-0.636,6.21-2.547,9.395
	s-4.141,6.847-3.503,9.076s1.911,6.369,2.229,7.962s-0.478,4.14-0.796,6.528s-1.433,3.345,0,4.777s3.822,0.797,5.096-0.796
	s4.936-13.377,6.528-15.765s3.185-3.025,3.981-7.006s-0.797-17.355-1.593-19.585s-8.28-18.312-8.439-20.7
	s-1.751-11.783-1.751-13.375s-1.911-27.866-3.025-30.732s-7.644-41.877-17.356-53.342s-3.821-30.094-3.821-30.094
	s-1.434-1.433-2.548-1.433s-13.216-6.528-13.057-7.643s-2.708-6.688-3.663-8.599s-0.477-3.344,0.637-2.866s0.796,1.273,2.388,3.662
	s3.503,6.529,5.096,7.962s10.509,4.458,10.509,4.458s-1.911-14.809-1.433-15.286s1.273-15.127,2.866-15.127s1.593,1.274,1.752,4.458
	s-1.911,9.395-0.478,12.738s1.274,8.28,1.433,10.191s-0.796,3.503-0.637,4.936s0.796,7.644,1.115,10.032s-1.273,5.096,0,7.484
	s1.911,9.394,3.025,10.19s3.025,2.388,4.777,3.185s2.547-2.389,2.07-3.185s-4.14,0.956-2.866-6.528s1.114-10.032,1.751-11.465
	s0.796-3.025,1.274-4.299s-1.592-6.529-1.751-9.554s-0.159-7.961,0.796-9.395s1.751-1.592,1.911,2.229s-0.478,6.847,0.637,8.598
	s0.955,3.981,1.751,4.14s0.796-2.229,1.433-2.229s3.503-1.114,2.07,1.592s-2.229,2.388-3.185,3.98s-1.433,2.07-0.956,3.822
	s-0.956,6.847-0.796,8.121s1.274,6.209,1.433,8.121s0.16,5.096,0.319,6.37s-0.637,1.274-0.478,3.025s0,1.433,0.956,4.14
	s7.165,35.031,11.305,43.948s8.598,21.177,9.235,22.77s2.229-0.637,2.229-0.637s-0.319,2.07-0.637,3.025s-0.955,1.593-0.796,3.981
	s0.956,4.14,1.592,7.802c0.637,3.662,1.114,8.28,2.07,11.146s2.548,4.299,2.548,4.299s2.07-3.024,1.433-6.688
	c-0.637-3.662-0.318-7.961-0.318-11.305c0-3.344,6.209-7.165,6.209-8.598s1.433-3.663,1.911-7.325s2.867-7.643,3.344-5.254
	s3.662,2.389,1.751,6.051s-1.274,7.643-1.115,8.598s2.867,0.796,5.414-0.159s6.369-2.707,9.713-3.821s6.21-2.548,8.599-4.458
	s4.14-3.662,5.732-6.369s2.707-10.35,2.548-11.465s-0.478-6.529-0.318-7.166s1.751-9.872,1.751-9.872s1.433,2.866,1.433,3.662
	s0,6.37-0.159,7.962s3.503,1.433,4.777-0.478s3.981-8.917,4.299-9.395s2.867-0.159,2.707,0.956s-5.574,11.942-6.21,14.331
	s-1.433,6.21-1.911,7.802s-1.911,3.503-1.911,4.458s13.853-1.911,15.445-1.433s1.274,3.663-0.159,3.822s-17.675,4.458-17.675,4.458
	s-30.891,13.057-32.483,15.127c-1.592,2.069-3.981,11.146-3.025,13.375s1.433,11.942-0.318,14.172s1.115,1.114,1.115,1.114
	s3.821-2.389,5.732-3.344s11.624-8.599,13.057-9.554s19.426-11.942,19.426-11.942s0.319,0.956-0.159,1.593s-9.713,7.164-9.873,7.961
	s6.688,0.318,6.847,1.115c0.159,0.796-0.319,1.433-2.229,1.751s-8.121,0.478-9.554,2.229s-22.929,14.17-26.432,17.674
	s-5.573,4.14-4.299,6.051s6.05,1.911,6.688,2.07s5.573-0.956,5.892,0.478s0.796,3.663,0.796,4.937s-3.026,1.115-5.096,1.911
	s-3.822-0.956-4.618,1.751s-9.395,21.655-9.713,22.292s-9.873,21.336-9.873,23.247s-6.847,36.941-5.095,55.094
	s27.706,20.859,27.706,20.859s0.16,5.895,0.637,6.213s8.598,0.955,9.872,1.114s10.509-0.16,11.146,0.637s28.025,0.16,29.458,0.319
	s9.554,0.954,10.668,1.91s7.961,11.305,8.439,12.261s4.777,6.051,4.777,6.051s-0.796,0.478-1.433,0.478s-4.936-4.298-5.573-5.095
	s-7.802-10.987-7.802-10.987s-11.783-0.796-13.535-0.637s-25,1.273-25,1.273s20.063,4.459,20.7,5.096s12.42,15.127,12.42,15.127
	s-14.649-10.987-15.286-11.146s-35.19-6.847-35.19-6.847s6.687,3.663,8.439,4.618s10.509,11.783,10.668,12.579
	s-10.668-8.598-11.783-9.235s-14.012-8.917-14.012-8.917s5.254,9.076,5.891,10.19s7.006,11.942,7.006,11.942
	s-10.668-10.191-11.146-11.624s-6.847-12.261-7.643-12.42s-10.032-2.069-10.35-1.433s2.389,9.872,2.866,10.668
	s-1.434,3.822-0.956,4.777s2.707,3.185,2.866,3.821s-1.593,4.459-1.115,5.255s3.663,3.185,3.663,3.185s-19.426-11.306-19.745-11.783
	s-0.637,6.21-2.548,7.006s-1.593-3.662-5.732-0.478s-8.917,4.14-10.828,3.98s-3.662-3.98-3.662-3.98s5.573-7.325,5.732-7.803
	s-4.459-6.531-4.459-6.531s-4.618,3.024-4.936,4.458s-5.891,9.714-6.688,10.669s3.503-19.426,3.503-19.426l-13.057,17.355
	l10.987-19.426c0,0-0.637-2.229-1.433-2.07s-7.643,1.911-7.643,1.911l-10.828,2.548c0,0-2.867,6.05-3.344,8.757
	s-2.388,8.6-2.547,9.396s2.07-17.197,2.07-17.197s8.917-5.096,9.395-5.096s-5.892-0.159-5.892-0.159l-5.732,3.344
	c0,0-4.458,5.731-4.458,6.369s0.318-6.21,0.318-6.21s8.121-2.866,8.121-3.344s-18.789-0.318-18.789-0.318l-25.477,0.159
	l-1.911,17.038l-0.478-18.948l43.151-5.892c0,0,14.808-2.707,15.764-2.866s13.375-2.389,14.171-2.229
	S-549.549,382.164-549.549,382.164z"/>
</svg>
