<?xml version="1.0" encoding="utf-8"?>
<!-- Generator: Adobe Illustrator 16.0.4, SVG Export Plug-In . SVG Version: 6.00 Build 0)  -->
<!DOCTYPE svg PUBLIC "-//W3C//DTD SVG 1.1//EN" "http://www.w3.org/Graphics/SVG/1.1/DTD/svg11.dtd">
<svg version="1.1" id="Layer_1" xmlns="http://www.w3.org/2000/svg" xmlns:xlink="http://www.w3.org/1999/xlink" x="0px" y="0px"
	 width="395.98px" height="425.979px" viewBox="0 0 395.98 425.979" enable-background="new 0 0 395.98 425.979"
	 xml:space="preserve">
<circle fill="#93D9B0" cx="205.908" cy="186.067" r="125.994"/>
<path fill="#F4F2DF" d="M234.725,352.636c0,0-0.784-67.352-1.566-72.05c-0.781-4.699-7.831-38.374-7.831-38.374
	s-0.786-3.001-2.22-3.001c-1.433,0-20.062-10.35-21.019-12.738s-6.528-6.527-7.484-6.688s-15.445-0.955-16.083-3.025
	c-0.637-2.07,0.159-4.459,0.159-4.459s6.21,2.549,6.847,3.345c0.638,0.796,7.165,1.593,8.121,0.318
	c0.956-1.275,3.503-4.618,4.458-2.548s3.344,3.979,3.344,3.979s-1.114-16.878-0.317-16.72c0.796,0.16,3.822,2.707,4.299,3.98
	c0.477,1.274-0.319,3.664,0.479,8.121c0.797,4.459,1.91,6.688,3.821,9.076c1.911,2.389,4.777,3.821,4.777,3.821
	s5.096-7.802,5.573-9.235c0.477-1.433-0.796-12.578-1.115-13.693c-0.318-1.114-5.096-26.591-5.096-26.591l-1.114-3.025l-6.369-5.732
	c0,0-1.274-1.751,1.751-1.115s5.095,3.503,5.095,3.503l1.274-8.599l-0.956-4.299c0,0,3.024,0.478,3.344,1.751
	s2.867-6.21,3.186-5.732c0.317,0.478-1.435,4.937-0.638,7.166s2.229,9.235,2.229,9.872c0,0.637,1.751,3.503,2.069,3.981
	c0.319,0.478,1.593-3.662,1.911-4.618c0.319-0.956,4.938-7.325,5.255-6.847c0.318,0.478-0.478,5.414-0.956,6.688
	c-0.478,1.274-3.82,6.847-3.661,9.713c0.158,2.867,0,4.777,1.113,8.28c1.114,3.503,1.115,7.483,1.115,7.483s3.343-1.434,3.662,0
	s0.318,1.752-1.751,6.529c-2.069,4.776-3.184,4.14-2.388,6.847c0.796,2.706,1.114,10.668,1.273,12.42s4.299,12.577,4.299,13.216
	s1.274,0.318,1.274,0.318s1.911-7.961,2.389-8.12c0.479-0.159,3.663-5.414,4.458-5.732c0.795-0.317,2.548-1.114,3.025,0.159
	c0.477,1.273,2.388,3.025,2.547-0.159c0.159-3.184-1.273-9.235,0.796-8.599c2.069,0.636,4.458,4.617,5.254,8.917
	s-0.636,6.21-2.547,9.396c-1.911,3.184-4.141,6.846-3.503,9.075s1.911,6.369,2.229,7.962c0.317,1.594-0.479,4.141-0.797,6.528
	c-0.317,2.388-1.433,3.345,0,4.776c1.434,1.433,3.822,0.797,5.097-0.795c1.273-1.594,4.936-13.377,6.527-15.766
	c1.593-2.388,3.186-3.025,3.981-7.006s-0.797-17.355-1.593-19.585s-8.28-18.312-8.439-20.7c-0.159-2.388-1.751-11.783-1.751-13.375
	c0-1.592-1.911-27.866-3.024-30.732c-1.114-2.866-7.645-41.877-17.356-53.342c-9.712-11.465-3.821-30.094-3.821-30.094
	s-1.434-1.433-2.548-1.433c-1.113,0-13.216-6.528-13.057-7.643c0.159-1.115-2.708-6.688-3.663-8.599s-0.478-3.344,0.637-2.866
	s0.796,1.273,2.389,3.662c1.592,2.389,3.503,6.529,5.096,7.962s10.509,4.458,10.509,4.458s-1.911-14.809-1.433-15.286
	c0.478-0.477,1.272-15.127,2.865-15.127c1.594,0,1.594,1.274,1.753,4.458c0.158,3.184-1.911,9.395-0.479,12.738
	c1.433,3.343,1.274,8.28,1.433,10.191c0.159,1.911-0.796,3.503-0.637,4.936c0.159,1.433,0.796,7.644,1.115,10.032
	c0.318,2.388-1.273,5.096,0,7.484c1.272,2.388,1.911,9.395,3.024,10.19c1.114,0.796,3.025,2.388,4.777,3.185
	c1.752,0.797,2.547-2.389,2.07-3.185c-0.478-0.796-4.141,0.956-2.866-6.528c1.274-7.484,1.114-10.032,1.751-11.465
	s0.796-3.025,1.274-4.299c0.478-1.274-1.593-6.529-1.751-9.554c-0.159-3.025-0.159-7.961,0.796-9.395s1.751-1.592,1.911,2.229
	c0.159,3.821-0.479,6.847,0.637,8.598s0.955,3.981,1.751,4.14c0.796,0.159,0.796-2.229,1.433-2.229s3.503-1.114,2.07,1.592
	s-2.229,2.388-3.186,3.98c-0.955,1.592-1.433,2.07-0.955,3.822c0.477,1.752-0.956,6.847-0.797,8.121
	c0.16,1.274,1.274,6.209,1.434,8.121s0.16,5.096,0.318,6.37c0.159,1.274-0.637,1.274-0.478,3.025s0,1.433,0.956,4.14
	s7.165,35.031,11.305,43.948c4.141,8.917,8.599,21.177,9.235,22.77c0.637,1.593,2.229-0.637,2.229-0.637s-0.318,2.07-0.637,3.025
	s-0.955,1.593-0.796,3.981s0.956,4.14,1.592,7.802c0.637,3.662,1.114,8.28,2.07,11.146s2.548,4.299,2.548,4.299
	s2.07-3.024,1.433-6.688c-0.637-3.662-0.317-7.961-0.317-11.305s6.209-7.165,6.209-8.598c0-1.433,1.433-3.663,1.911-7.325
	c0.478-3.662,2.866-7.643,3.344-5.254c0.477,2.389,3.662,2.389,1.751,6.051s-1.274,7.643-1.115,8.598s2.867,0.796,5.414-0.159
	s6.369-2.707,9.713-3.821c3.344-1.114,6.21-2.548,8.6-4.458c2.389-1.91,4.14-3.662,5.731-6.369s2.707-10.35,2.548-11.465
	c-0.159-1.115-0.478-6.529-0.317-7.166c0.159-0.637,1.751-9.872,1.751-9.872s1.433,2.866,1.433,3.662s0,6.37-0.159,7.962
	s3.503,1.433,4.777-0.478s3.98-8.917,4.299-9.395s2.867-0.159,2.707,0.956c-0.16,1.115-5.574,11.942-6.21,14.331
	c-0.636,2.389-1.433,6.21-1.911,7.802c-0.478,1.592-1.911,3.503-1.911,4.458s13.854-1.911,15.445-1.433
	c1.592,0.478,1.274,3.663-0.159,3.822c-1.433,0.159-17.675,4.458-17.675,4.458s-30.891,13.057-32.483,15.127
	c-1.592,2.069-3.98,11.146-3.024,13.375c0.956,2.229,1.433,11.942-0.318,14.172c-1.751,2.23,1.115,1.115,1.115,1.115
	s3.821-2.39,5.731-3.345c1.911-0.955,11.624-8.599,13.058-9.554c1.433-0.955,19.426-11.942,19.426-11.942s0.319,0.956-0.159,1.593
	c-0.478,0.638-9.713,7.164-9.873,7.961c-0.159,0.797,6.688,0.318,6.848,1.115c0.158,0.797-0.319,1.434-2.229,1.752
	c-1.91,0.317-8.121,0.478-9.554,2.229s-22.929,14.17-26.432,17.674c-3.504,3.504-5.573,4.141-4.3,6.051
	c1.274,1.911,6.051,1.911,6.688,2.07c0.638,0.158,5.573-0.956,5.892,0.479c0.319,1.434,0.796,3.662,0.796,4.937
	s-3.025,1.114-5.096,1.911c-2.07,0.796-3.822-0.956-4.618,1.751c-0.796,2.706-9.395,21.655-9.713,22.292s-9.873,21.336-9.873,23.247
	s-6.847,36.94-5.095,55.094s27.706,20.859,27.706,20.859s0.16,5.895,0.637,6.213c0.478,0.317,8.598,0.955,9.872,1.113
	c1.274,0.159,10.509-0.159,11.146,0.638c0.637,0.797,28.024,0.16,29.458,0.318c1.433,0.159,9.554,0.954,10.668,1.91
	c1.113,0.956,7.961,11.306,8.438,12.261c0.479,0.956,4.777,6.052,4.777,6.052s-0.796,0.478-1.434,0.478
	c-0.637,0-4.936-4.298-5.572-5.095c-0.638-0.797-7.803-10.987-7.803-10.987s-11.782-0.796-13.535-0.637
	c-1.752,0.159-25,1.272-25,1.272s20.063,4.46,20.7,5.097c0.638,0.637,12.42,15.127,12.42,15.127s-14.648-10.987-15.285-11.146
	c-0.638-0.158-35.19-6.847-35.19-6.847s6.687,3.663,8.438,4.618c1.753,0.955,10.51,11.783,10.669,12.579
	c0.158,0.796-10.669-8.599-11.783-9.235c-1.115-0.637-14.013-8.917-14.013-8.917s5.255,9.076,5.892,10.19
	c0.637,1.113,7.006,11.941,7.006,11.941s-10.668-10.19-11.146-11.624c-0.478-1.433-6.847-12.261-7.643-12.42
	s-10.032-2.068-10.35-1.433c-0.318,0.636,2.389,9.872,2.865,10.668c0.478,0.796-1.434,3.822-0.955,4.777
	c0.478,0.954,2.706,3.185,2.865,3.82c0.159,0.637-1.593,4.459-1.114,5.255c0.478,0.796,3.663,3.186,3.663,3.186
	s-19.427-11.307-19.745-11.783c-0.319-0.477-0.638,6.21-2.549,7.006c-1.91,0.796-1.593-3.662-5.731-0.478
	c-4.139,3.184-8.917,4.14-10.828,3.979s-3.662-3.979-3.662-3.979s5.573-7.325,5.732-7.804c0.159-0.478-4.459-6.53-4.459-6.53
	s-4.618,3.023-4.937,4.458c-0.317,1.434-5.891,9.714-6.688,10.669s3.503-19.426,3.503-19.426l-13.058,17.354l10.987-19.426
	c0,0-0.637-2.229-1.433-2.07s-7.644,1.911-7.644,1.911l-10.828,2.548c0,0-2.866,6.05-3.344,8.757
	c-0.477,2.707-2.388,8.601-2.547,9.396s2.07-17.197,2.07-17.197s8.917-5.096,9.395-5.096c0.479,0-5.892-0.159-5.892-0.159
	l-5.732,3.344c0,0-4.458,5.731-4.458,6.369s0.318-6.21,0.318-6.21s8.121-2.866,8.121-3.344c0-0.479-18.789-0.318-18.789-0.318
	l-25.478,0.159l-1.91,17.038l-0.479-18.948l43.151-5.892c0,0,14.808-2.707,15.764-2.866s13.375-2.389,14.171-2.229
	C228.354,355.765,234.725,352.636,234.725,352.636z"/>
</svg>
